# xmcd CD database file
#
# Track frame offsets:
#	182
#	11122
#	26367
#	37800
#	51520
#	72860
#	84855
#	95920
#	113850
#	131305
#	151817
#	176442
#	197905
#	218002
#	228412
#	244000
#
# Disc length: 3327 seconds
#
# Revision: 3
# Processed by: cddbd v1.5.2PL0 Copyright (c) Steve Scherf et al.
# Submitted via: CDex 1.51
#
DISCID=cb0cfd10
DTITLE=Celso Blues Boy - Vivo
DYEAR=1991
DGENRE=Blues
TTITLE0=Tempos Difíceis
TTITLE1=Blues Motel
TTITLE2=Fumando Na Escuridão
TTITLE3=A Isso Chamam Blues
TTITLE4=Sempre Brilhará
TTITLE5=Atrás Do Tempo Perdido
TTITLE6=Me Diga O Que É O Amor
TTITLE7=Damas Da Noite
TTITLE8=Sem Ninguém
TTITLE9=Amor Vazio
TTITLE10=De Um Jeito Blues
TTITLE11=Brilho Da Noite
TTITLE12=Aquarela Do Brasil (In Blues)
TTITLE13=Marginal
TTITLE14=Aumenta Que Isso Aí é Rock'N Roll
TTITLE15=Até A Próxima Blues
EXTD=YEAR: 1991
EXTT0=
EXTT1=
EXTT2=
EXTT3=
EXTT4=
EXTT5=
EXTT6=
EXTT7=
EXTT8=
EXTT9=
EXTT10=
EXTT11=
EXTT12=
EXTT13=
EXTT14=
EXTT15=
PLAYORDER=
